<mxfile host="65bd71144e">
    <diagram id="KV6H23iqa5nY0cwmGEIF" name="Page-1">
        <mxGraphModel dx="390" dy="1059" grid="0" gridSize="10" guides="1" tooltips="1" connect="1" arrows="1" fold="1" page="0" pageScale="1" pageWidth="850" pageHeight="1100" math="0" shadow="0">
            <root>
                <mxCell id="0"/>
                <mxCell id="1" parent="0"/>
                <mxCell id="113" value="" style="rounded=0;whiteSpace=wrap;html=1;" vertex="1" parent="1">
                    <mxGeometry x="446" y="-178" width="668" height="1010" as="geometry"/>
                </mxCell>
                <mxCell id="2" value="3" style="whiteSpace=wrap;html=1;aspect=fixed;fillColor=#cce5ff;strokeColor=#36393d;" vertex="1" parent="1">
                    <mxGeometry x="472" y="33" width="54" height="54" as="geometry"/>
                </mxCell>
                <mxCell id="3" value="8" style="whiteSpace=wrap;html=1;aspect=fixed;fillColor=#f5f5f5;fontColor=#333333;strokeColor=#666666;" vertex="1" parent="1">
                    <mxGeometry x="526" y="33" width="54" height="54" as="geometry"/>
                </mxCell>
                <mxCell id="4" value="9" style="whiteSpace=wrap;html=1;aspect=fixed;fillColor=#f5f5f5;fontColor=#333333;strokeColor=#666666;" vertex="1" parent="1">
                    <mxGeometry x="580.5" y="33" width="54" height="54" as="geometry"/>
                </mxCell>
                <mxCell id="5" value="10" style="whiteSpace=wrap;html=1;aspect=fixed;fillColor=#f5f5f5;fontColor=#333333;strokeColor=#666666;" vertex="1" parent="1">
                    <mxGeometry x="635.25" y="33" width="54" height="54" as="geometry"/>
                </mxCell>
                <mxCell id="6" value="11" style="whiteSpace=wrap;html=1;aspect=fixed;fillColor=#f5f5f5;fontColor=#333333;strokeColor=#666666;" vertex="1" parent="1">
                    <mxGeometry x="689.25" y="33" width="54" height="54" as="geometry"/>
                </mxCell>
                <mxCell id="7" value="12" style="whiteSpace=wrap;html=1;aspect=fixed;fillColor=#f5f5f5;strokeColor=#666666;fontColor=#333333;" vertex="1" parent="1">
                    <mxGeometry x="743.75" y="33" width="54" height="54" as="geometry"/>
                </mxCell>
                <mxCell id="8" value="13" style="whiteSpace=wrap;html=1;aspect=fixed;fillColor=#f5f5f5;fontColor=#333333;strokeColor=#666666;" vertex="1" parent="1">
                    <mxGeometry x="797.75" y="33" width="54" height="54" as="geometry"/>
                </mxCell>
                <mxCell id="9" value="15" style="whiteSpace=wrap;html=1;aspect=fixed;fillColor=#f5f5f5;fontColor=#333333;strokeColor=#666666;" vertex="1" parent="1">
                    <mxGeometry x="851.75" y="33" width="54.25" height="54.25" as="geometry"/>
                </mxCell>
                <mxCell id="10" value="16" style="whiteSpace=wrap;html=1;aspect=fixed;fillColor=#f5f5f5;fontColor=#333333;strokeColor=#666666;" vertex="1" parent="1">
                    <mxGeometry x="906.25" y="33" width="54" height="54" as="geometry"/>
                </mxCell>
                <mxCell id="11" value="18" style="whiteSpace=wrap;html=1;aspect=fixed;fillColor=#f5f5f5;fontColor=#333333;strokeColor=#666666;" vertex="1" parent="1">
                    <mxGeometry x="961" y="33" width="54" height="54" as="geometry"/>
                </mxCell>
                <mxCell id="12" value="22" style="whiteSpace=wrap;html=1;aspect=fixed;fillColor=#cdeb8b;strokeColor=#36393d;" vertex="1" parent="1">
                    <mxGeometry x="1015" y="33" width="54" height="54" as="geometry"/>
                </mxCell>
                <mxCell id="13" value="0" style="whiteSpace=wrap;html=1;aspect=fixed;fillColor=#fad7ac;strokeColor=#b46504;" vertex="1" parent="1">
                    <mxGeometry x="472.5" y="-62" width="54" height="54" as="geometry"/>
                </mxCell>
                <mxCell id="14" value="1" style="whiteSpace=wrap;html=1;aspect=fixed;fillColor=#fad7ac;strokeColor=#b46504;" vertex="1" parent="1">
                    <mxGeometry x="526.5" y="-62" width="54" height="54" as="geometry"/>
                </mxCell>
                <mxCell id="15" value="2" style="whiteSpace=wrap;html=1;aspect=fixed;fillColor=#fad7ac;strokeColor=#b46504;" vertex="1" parent="1">
                    <mxGeometry x="581" y="-62" width="54" height="54" as="geometry"/>
                </mxCell>
                <mxCell id="16" value="3" style="whiteSpace=wrap;html=1;aspect=fixed;fillColor=#fad7ac;strokeColor=#b46504;" vertex="1" parent="1">
                    <mxGeometry x="635.75" y="-62" width="54" height="54" as="geometry"/>
                </mxCell>
                <mxCell id="17" value="4" style="whiteSpace=wrap;html=1;aspect=fixed;fillColor=#fad7ac;strokeColor=#b46504;" vertex="1" parent="1">
                    <mxGeometry x="689.75" y="-62" width="54" height="54" as="geometry"/>
                </mxCell>
                <mxCell id="18" value="5" style="whiteSpace=wrap;html=1;aspect=fixed;fillColor=#fad7ac;strokeColor=#b46504;" vertex="1" parent="1">
                    <mxGeometry x="744.25" y="-62" width="54" height="54" as="geometry"/>
                </mxCell>
                <mxCell id="19" value="6" style="whiteSpace=wrap;html=1;aspect=fixed;fillColor=#fad7ac;strokeColor=#b46504;" vertex="1" parent="1">
                    <mxGeometry x="798.25" y="-62" width="54" height="54" as="geometry"/>
                </mxCell>
                <mxCell id="20" value="7" style="whiteSpace=wrap;html=1;aspect=fixed;fillColor=#fad7ac;strokeColor=#b46504;" vertex="1" parent="1">
                    <mxGeometry x="852.25" y="-62" width="54.25" height="54.25" as="geometry"/>
                </mxCell>
                <mxCell id="21" value="8" style="whiteSpace=wrap;html=1;aspect=fixed;fillColor=#fad7ac;strokeColor=#b46504;" vertex="1" parent="1">
                    <mxGeometry x="906.75" y="-62" width="54" height="54" as="geometry"/>
                </mxCell>
                <mxCell id="22" value="9" style="whiteSpace=wrap;html=1;aspect=fixed;fillColor=#fad7ac;strokeColor=#b46504;" vertex="1" parent="1">
                    <mxGeometry x="961.5" y="-62" width="54" height="54" as="geometry"/>
                </mxCell>
                <mxCell id="23" value="10" style="whiteSpace=wrap;html=1;aspect=fixed;fillColor=#fad7ac;strokeColor=#b46504;" vertex="1" parent="1">
                    <mxGeometry x="1015.5" y="-62" width="54" height="54" as="geometry"/>
                </mxCell>
                <mxCell id="24" value="&lt;b&gt;INDEX&lt;/b&gt;" style="text;html=1;align=center;verticalAlign=middle;resizable=0;points=[];autosize=1;strokeColor=none;fillColor=none;" vertex="1" parent="1">
                    <mxGeometry x="472" y="-88" width="55" height="26" as="geometry"/>
                </mxCell>
                <mxCell id="35" value="3" style="whiteSpace=wrap;html=1;aspect=fixed;fillColor=#cce5ff;strokeColor=#36393d;" vertex="1" parent="1">
                    <mxGeometry x="471.75" y="368" width="54" height="54" as="geometry"/>
                </mxCell>
                <mxCell id="36" value="8" style="whiteSpace=wrap;html=1;aspect=fixed;fillColor=#f5f5f5;fontColor=#333333;strokeColor=#666666;" vertex="1" parent="1">
                    <mxGeometry x="525.75" y="368" width="54" height="54" as="geometry"/>
                </mxCell>
                <mxCell id="37" value="9" style="whiteSpace=wrap;html=1;aspect=fixed;fillColor=#f5f5f5;fontColor=#333333;strokeColor=#666666;" vertex="1" parent="1">
                    <mxGeometry x="580.25" y="368" width="54" height="54" as="geometry"/>
                </mxCell>
                <mxCell id="38" value="10" style="whiteSpace=wrap;html=1;aspect=fixed;fillColor=#f5f5f5;fontColor=#333333;strokeColor=#666666;" vertex="1" parent="1">
                    <mxGeometry x="635" y="368" width="54" height="54" as="geometry"/>
                </mxCell>
                <mxCell id="39" value="11" style="whiteSpace=wrap;html=1;aspect=fixed;fillColor=#f5f5f5;fontColor=#333333;strokeColor=#666666;" vertex="1" parent="1">
                    <mxGeometry x="689" y="368" width="54" height="54" as="geometry"/>
                </mxCell>
                <mxCell id="40" value="12" style="whiteSpace=wrap;html=1;aspect=fixed;fillColor=#ffff88;strokeColor=#36393d;" vertex="1" parent="1">
                    <mxGeometry x="743.5" y="368" width="54" height="54" as="geometry"/>
                </mxCell>
                <mxCell id="41" value="13" style="whiteSpace=wrap;html=1;aspect=fixed;fillColor=#f5f5f5;fontColor=#333333;strokeColor=#666666;" vertex="1" parent="1">
                    <mxGeometry x="797.5" y="368" width="54" height="54" as="geometry"/>
                </mxCell>
                <mxCell id="42" value="15" style="whiteSpace=wrap;html=1;aspect=fixed;fillColor=#f5f5f5;fontColor=#333333;strokeColor=#666666;" vertex="1" parent="1">
                    <mxGeometry x="851.5" y="368" width="54.25" height="54.25" as="geometry"/>
                </mxCell>
                <mxCell id="43" value="16" style="whiteSpace=wrap;html=1;aspect=fixed;fillColor=#f5f5f5;fontColor=#333333;strokeColor=#666666;" vertex="1" parent="1">
                    <mxGeometry x="906" y="368" width="54" height="54" as="geometry"/>
                </mxCell>
                <mxCell id="44" value="18" style="whiteSpace=wrap;html=1;aspect=fixed;fillColor=#f5f5f5;fontColor=#333333;strokeColor=#666666;" vertex="1" parent="1">
                    <mxGeometry x="960.75" y="368" width="54" height="54" as="geometry"/>
                </mxCell>
                <mxCell id="45" value="22" style="whiteSpace=wrap;html=1;aspect=fixed;fillColor=#cdeb8b;strokeColor=#36393d;" vertex="1" parent="1">
                    <mxGeometry x="1014.75" y="368" width="54" height="54" as="geometry"/>
                </mxCell>
                <mxCell id="65" value="LEFT" style="whiteSpace=wrap;html=1;aspect=fixed;fillColor=#cce5ff;strokeColor=#36393d;" vertex="1" parent="1">
                    <mxGeometry x="476" y="-163" width="54" height="54" as="geometry"/>
                </mxCell>
                <mxCell id="66" value="Right" style="whiteSpace=wrap;html=1;aspect=fixed;fillColor=#cdeb8b;strokeColor=#36393d;" vertex="1" parent="1">
                    <mxGeometry x="624" y="-163" width="54" height="54" as="geometry"/>
                </mxCell>
                <mxCell id="67" value="Mid" style="whiteSpace=wrap;html=1;aspect=fixed;fillColor=#ffff88;strokeColor=#36393d;" vertex="1" parent="1">
                    <mxGeometry x="550" y="-163" width="54" height="54" as="geometry"/>
                </mxCell>
                <mxCell id="68" value="" style="group" vertex="1" connectable="0" parent="1">
                    <mxGeometry x="538" y="153" width="280" height="183" as="geometry"/>
                </mxCell>
                <mxCell id="33" value="&lt;b&gt;Så lenge left &amp;lt; right&lt;/b&gt;" style="text;html=1;align=left;verticalAlign=top;whiteSpace=wrap;rounded=0;fillColor=#dae8fc;strokeColor=#6c8ebf;" vertex="1" parent="68">
                    <mxGeometry x="0.75" width="279.25" height="183" as="geometry"/>
                </mxCell>
                <mxCell id="63" value="&lt;ol&gt;&lt;li&gt;&lt;b&gt;Beregn Mid&lt;/b&gt;&lt;/li&gt;&lt;ul&gt;&lt;li&gt;&lt;b&gt;(Left + Right) / 2&lt;/b&gt;&lt;/li&gt;&lt;/ul&gt;&lt;li&gt;&lt;b&gt;Mid value == target =&amp;gt; return Mid&lt;/b&gt;&lt;/li&gt;&lt;li&gt;&lt;b&gt;if Mid value &amp;gt; target -&amp;gt; velg venstre side&lt;/b&gt;&lt;/li&gt;&lt;ul&gt;&lt;li&gt;&lt;b&gt;right = mid - 1&lt;/b&gt;&lt;/li&gt;&lt;/ul&gt;&lt;li&gt;&lt;b&gt;else velg høyre side&lt;/b&gt;&lt;/li&gt;&lt;ul&gt;&lt;li&gt;&lt;b&gt;left = mid + 1&lt;/b&gt;&lt;/li&gt;&lt;/ul&gt;&lt;/ol&gt;" style="text;html=1;align=left;verticalAlign=middle;whiteSpace=wrap;rounded=0;fillColor=#fff2cc;strokeColor=#d6b656;" vertex="1" parent="68">
                    <mxGeometry y="23" width="280" height="160" as="geometry"/>
                </mxCell>
                <mxCell id="69" value="&lt;b&gt;Søk 10&lt;/b&gt;" style="text;html=1;align=center;verticalAlign=middle;whiteSpace=wrap;rounded=0;fillColor=#ffff88;strokeColor=#36393d;" vertex="1" parent="1">
                    <mxGeometry x="467" y="153" width="60" height="30" as="geometry"/>
                </mxCell>
                <mxCell id="70" value="3" style="whiteSpace=wrap;html=1;aspect=fixed;fillColor=#cce5ff;strokeColor=#36393d;" vertex="1" parent="1">
                    <mxGeometry x="472.25" y="448" width="54" height="54" as="geometry"/>
                </mxCell>
                <mxCell id="71" value="8" style="whiteSpace=wrap;html=1;aspect=fixed;fillColor=#f5f5f5;fontColor=#333333;strokeColor=#666666;" vertex="1" parent="1">
                    <mxGeometry x="526.25" y="448" width="54" height="54" as="geometry"/>
                </mxCell>
                <mxCell id="72" value="9" style="whiteSpace=wrap;html=1;aspect=fixed;fillColor=#ffff88;strokeColor=#36393d;" vertex="1" parent="1">
                    <mxGeometry x="580.75" y="448" width="54" height="54" as="geometry"/>
                </mxCell>
                <mxCell id="73" value="10" style="whiteSpace=wrap;html=1;aspect=fixed;fillColor=#f5f5f5;fontColor=#333333;strokeColor=#666666;" vertex="1" parent="1">
                    <mxGeometry x="635.5" y="448" width="54" height="54" as="geometry"/>
                </mxCell>
                <mxCell id="74" value="11" style="whiteSpace=wrap;html=1;aspect=fixed;fillColor=#cdeb8b;strokeColor=#36393d;" vertex="1" parent="1">
                    <mxGeometry x="689.5" y="448" width="54" height="54" as="geometry"/>
                </mxCell>
                <mxCell id="75" value="12" style="whiteSpace=wrap;html=1;aspect=fixed;fillColor=#647687;strokeColor=#314354;fontColor=#ffffff;" vertex="1" parent="1">
                    <mxGeometry x="744" y="448" width="54" height="54" as="geometry"/>
                </mxCell>
                <mxCell id="76" value="13" style="whiteSpace=wrap;html=1;aspect=fixed;fillColor=#647687;strokeColor=#314354;fontColor=#ffffff;" vertex="1" parent="1">
                    <mxGeometry x="798" y="448" width="54" height="54" as="geometry"/>
                </mxCell>
                <mxCell id="77" value="15" style="whiteSpace=wrap;html=1;aspect=fixed;fillColor=#647687;strokeColor=#314354;fontColor=#ffffff;" vertex="1" parent="1">
                    <mxGeometry x="852" y="448" width="54.25" height="54.25" as="geometry"/>
                </mxCell>
                <mxCell id="78" value="16" style="whiteSpace=wrap;html=1;aspect=fixed;fillColor=#647687;strokeColor=#314354;fontColor=#ffffff;" vertex="1" parent="1">
                    <mxGeometry x="906.5" y="448" width="54" height="54" as="geometry"/>
                </mxCell>
                <mxCell id="79" value="18" style="whiteSpace=wrap;html=1;aspect=fixed;fillColor=#647687;strokeColor=#314354;fontColor=#ffffff;" vertex="1" parent="1">
                    <mxGeometry x="961.25" y="448" width="54" height="54" as="geometry"/>
                </mxCell>
                <mxCell id="80" value="22" style="whiteSpace=wrap;html=1;aspect=fixed;fillColor=#647687;strokeColor=#314354;fontColor=#ffffff;" vertex="1" parent="1">
                    <mxGeometry x="1015.25" y="448" width="54" height="54" as="geometry"/>
                </mxCell>
                <mxCell id="81" value="3" style="whiteSpace=wrap;html=1;aspect=fixed;fillColor=#647687;strokeColor=#314354;fontColor=#ffffff;" vertex="1" parent="1">
                    <mxGeometry x="471.75" y="530" width="54" height="54" as="geometry"/>
                </mxCell>
                <mxCell id="82" value="8" style="whiteSpace=wrap;html=1;aspect=fixed;fillColor=#647687;strokeColor=#314354;fontColor=#ffffff;" vertex="1" parent="1">
                    <mxGeometry x="525.75" y="530" width="54" height="54" as="geometry"/>
                </mxCell>
                <mxCell id="83" value="9" style="whiteSpace=wrap;html=1;aspect=fixed;fillColor=#647687;strokeColor=#314354;fontColor=#ffffff;" vertex="1" parent="1">
                    <mxGeometry x="580.25" y="530" width="54" height="54" as="geometry"/>
                </mxCell>
                <mxCell id="84" value="10" style="whiteSpace=wrap;html=1;aspect=fixed;fillColor=#cce5ff;strokeColor=#36393d;" vertex="1" parent="1">
                    <mxGeometry x="635" y="530" width="54" height="54" as="geometry"/>
                </mxCell>
                <mxCell id="85" value="11" style="whiteSpace=wrap;html=1;aspect=fixed;fillColor=#cdeb8b;strokeColor=#36393d;" vertex="1" parent="1">
                    <mxGeometry x="689" y="530" width="54" height="54" as="geometry"/>
                </mxCell>
                <mxCell id="86" value="12" style="whiteSpace=wrap;html=1;aspect=fixed;fillColor=#f5f5f5;strokeColor=#666666;gradientColor=#b3b3b3;" vertex="1" parent="1">
                    <mxGeometry x="743.5" y="530" width="54" height="54" as="geometry"/>
                </mxCell>
                <mxCell id="87" value="13" style="whiteSpace=wrap;html=1;aspect=fixed;fillColor=#f5f5f5;strokeColor=#666666;gradientColor=#b3b3b3;" vertex="1" parent="1">
                    <mxGeometry x="797.5" y="530" width="54" height="54" as="geometry"/>
                </mxCell>
                <mxCell id="88" value="15" style="whiteSpace=wrap;html=1;aspect=fixed;fillColor=#f5f5f5;strokeColor=#666666;gradientColor=#b3b3b3;" vertex="1" parent="1">
                    <mxGeometry x="851.5" y="530" width="54.25" height="54.25" as="geometry"/>
                </mxCell>
                <mxCell id="89" value="16" style="whiteSpace=wrap;html=1;aspect=fixed;fillColor=#f5f5f5;strokeColor=#666666;gradientColor=#b3b3b3;" vertex="1" parent="1">
                    <mxGeometry x="906" y="530" width="54" height="54" as="geometry"/>
                </mxCell>
                <mxCell id="90" value="18" style="whiteSpace=wrap;html=1;aspect=fixed;fillColor=#f5f5f5;strokeColor=#666666;gradientColor=#b3b3b3;" vertex="1" parent="1">
                    <mxGeometry x="960.75" y="530" width="54" height="54" as="geometry"/>
                </mxCell>
                <mxCell id="91" value="22" style="whiteSpace=wrap;html=1;aspect=fixed;fillColor=#f5f5f5;strokeColor=#666666;gradientColor=#b3b3b3;" vertex="1" parent="1">
                    <mxGeometry x="1014.75" y="530" width="54" height="54" as="geometry"/>
                </mxCell>
                <mxCell id="92" value="" style="endArrow=classic;html=1;" edge="1" parent="1" source="112" target="84">
                    <mxGeometry width="50" height="50" relative="1" as="geometry">
                        <mxPoint x="660" y="606" as="sourcePoint"/>
                        <mxPoint x="656" y="584" as="targetPoint"/>
                    </mxGeometry>
                </mxCell>
                <mxCell id="94" value="3" style="whiteSpace=wrap;html=1;aspect=fixed;fillColor=#647687;strokeColor=#314354;fontColor=#ffffff;" vertex="1" parent="1">
                    <mxGeometry x="472.5" y="685" width="54" height="54" as="geometry"/>
                </mxCell>
                <mxCell id="95" value="8" style="whiteSpace=wrap;html=1;aspect=fixed;fillColor=#647687;strokeColor=#314354;fontColor=#ffffff;" vertex="1" parent="1">
                    <mxGeometry x="526.5" y="685" width="54" height="54" as="geometry"/>
                </mxCell>
                <mxCell id="96" value="9" style="whiteSpace=wrap;html=1;aspect=fixed;fillColor=#647687;strokeColor=#314354;fontColor=#ffffff;" vertex="1" parent="1">
                    <mxGeometry x="581" y="685" width="54" height="54" as="geometry"/>
                </mxCell>
                <mxCell id="97" value="10" style="whiteSpace=wrap;html=1;aspect=fixed;fillColor=#ffff88;strokeColor=#36393d;" vertex="1" parent="1">
                    <mxGeometry x="635.75" y="685" width="54" height="54" as="geometry"/>
                </mxCell>
                <mxCell id="98" value="11" style="whiteSpace=wrap;html=1;aspect=fixed;fillColor=#cdeb8b;strokeColor=#36393d;" vertex="1" parent="1">
                    <mxGeometry x="689.75" y="685" width="54" height="54" as="geometry"/>
                </mxCell>
                <mxCell id="99" value="12" style="whiteSpace=wrap;html=1;aspect=fixed;fillColor=#647687;strokeColor=#314354;fontColor=#ffffff;" vertex="1" parent="1">
                    <mxGeometry x="744.25" y="685" width="54" height="54" as="geometry"/>
                </mxCell>
                <mxCell id="100" value="13" style="whiteSpace=wrap;html=1;aspect=fixed;fillColor=#647687;strokeColor=#314354;fontColor=#ffffff;" vertex="1" parent="1">
                    <mxGeometry x="798.25" y="685" width="54" height="54" as="geometry"/>
                </mxCell>
                <mxCell id="101" value="15" style="whiteSpace=wrap;html=1;aspect=fixed;fillColor=#647687;strokeColor=#314354;fontColor=#ffffff;" vertex="1" parent="1">
                    <mxGeometry x="852.25" y="685" width="54.25" height="54.25" as="geometry"/>
                </mxCell>
                <mxCell id="102" value="16" style="whiteSpace=wrap;html=1;aspect=fixed;fillColor=#647687;strokeColor=#314354;fontColor=#ffffff;" vertex="1" parent="1">
                    <mxGeometry x="906.75" y="685" width="54" height="54" as="geometry"/>
                </mxCell>
                <mxCell id="103" value="18" style="whiteSpace=wrap;html=1;aspect=fixed;fillColor=#647687;strokeColor=#314354;fontColor=#ffffff;" vertex="1" parent="1">
                    <mxGeometry x="961.5" y="685" width="54" height="54" as="geometry"/>
                </mxCell>
                <mxCell id="104" value="22" style="whiteSpace=wrap;html=1;aspect=fixed;fillColor=#647687;strokeColor=#314354;fontColor=#ffffff;" vertex="1" parent="1">
                    <mxGeometry x="1015.5" y="685" width="54" height="54" as="geometry"/>
                </mxCell>
                <mxCell id="107" value="&lt;b&gt;Array&amp;nbsp;&lt;/b&gt;" style="text;html=1;align=center;verticalAlign=middle;resizable=0;points=[];autosize=1;strokeColor=none;fillColor=none;" vertex="1" parent="1">
                    <mxGeometry x="470" y="7" width="53" height="26" as="geometry"/>
                </mxCell>
                <mxCell id="109" value="" style="endArrow=classic;html=1;" edge="1" parent="1" source="110" target="97">
                    <mxGeometry width="50" height="50" relative="1" as="geometry">
                        <mxPoint x="665" y="783" as="sourcePoint"/>
                        <mxPoint x="785" y="603" as="targetPoint"/>
                    </mxGeometry>
                </mxCell>
                <mxCell id="110" value="&lt;b&gt;&lt;font style=&quot;font-size: 14px;&quot;&gt;Fant target&lt;/font&gt;&lt;/b&gt;" style="text;html=1;align=center;verticalAlign=middle;whiteSpace=wrap;rounded=0;fillColor=#ffff88;strokeColor=#36393d;" vertex="1" parent="1">
                    <mxGeometry x="600.75" y="774" width="124" height="30" as="geometry"/>
                </mxCell>
                <mxCell id="112" value="Også Mid Value" style="text;html=1;align=center;verticalAlign=middle;whiteSpace=wrap;rounded=0;fillColor=#ffff88;strokeColor=#36393d;" vertex="1" parent="1">
                    <mxGeometry x="618" y="603" width="88" height="30" as="geometry"/>
                </mxCell>
            </root>
        </mxGraphModel>
    </diagram>
</mxfile>